<svg xmlns="http://www.w3.org/2000/svg" width="100%" height="100%" viewBox="0 0 64 64">
    <g transform="translate(10,10) scale(0.5,0.5)" opacity="1">
        <defs class="defs" />
        <style>
            path {
                stroke: #004E98;
                fill: #004E98;
            }

            @media (prefers-color-scheme: dark) {
                path {
                    stroke: #FFFFFF;
                    fill: #FFFFFF;
                }
            }
        </style>
        <path transform="translate(-3.4358209412481653,-4.255)"
            d="M84.554,4.255c-3.956,0 -7.176,3.219 -7.176,7.174c0,0.387 0.039,0.765 0.099,1.135c-4.092,2.764 -9.443,7 -15.568,12.325c-4.184,-1.993 -8.861,-3.113 -13.796,-3.113c-4.216,0 -8.241,0.823 -11.934,2.303c-8.546,-4.33 -15.099,-4.867 -18.489,-1.478c-3.615,3.615 -2.559,10.319 1.195,17.912c-1.891,4.094 -2.954,8.646 -2.954,13.445c0,4.956 1.127,9.652 3.138,13.851c-18.481,21.353 -15.961,23.903 -14.871,24.993c0.469,0.469 1.055,0.767 1.897,0.767c1.784,0 4.716,-1.335 10.114,-5.214c3.358,-2.414 7.331,-5.58 11.733,-9.347c5.522,4.455 12.538,7.131 20.169,7.131c5.171,0 10.056,-1.233 14.39,-3.409c3.422,1.423 6.504,2.168 9.096,2.168c2.577,0 4.677,-0.725 6.17,-2.218c3.033,-3.033 2.954,-8.486 -0.202,-15.778c1.748,-3.965 2.728,-8.34 2.728,-12.943c0,-7.611 -2.661,-14.608 -7.095,-20.124c5.15,-5.988 9.264,-11.255 11.862,-15.254c3.721,-0.262 6.67,-3.365 6.67,-7.15c0,-3.957 -3.219,-7.176 -7.176,-7.176zM68.88,33.851c-5.615,6.406 -12.317,13.548 -19.557,20.787c-1.203,1.202 -2.43,2.414 -3.659,3.618c-1.404,-0.985 -3.109,-1.569 -4.951,-1.569c-1.909,0 -3.67,0.63 -5.102,1.681c-5.973,-6.453 -10.321,-12.584 -13.106,-17.84c4.847,-9.204 14.504,-15.497 25.608,-15.497c8.143,-0.001 15.504,3.386 20.767,8.82zM35.322,65.33c0,-2.973 2.418,-5.39 5.391,-5.39c2.972,0 5.39,2.417 5.39,5.39c0,2.972 -2.418,5.389 -5.39,5.389c-2.972,0 -5.391,-2.417 -5.391,-5.389zM19.991,24.902c1.997,-1.996 6.534,-1.603 12.413,0.984c-4.737,2.662 -8.735,6.486 -11.606,11.085c-2.482,-5.809 -2.717,-10.159 -0.807,-12.069zM33.389,60.761c-0.832,1.326 -1.32,2.889 -1.32,4.569c0,1.666 0.483,3.22 1.304,4.542c-1.906,1.731 -3.707,3.335 -5.405,4.817c-5.411,-5.26 -8.783,-12.608 -8.783,-20.731c0,-3.423 0.602,-6.707 1.697,-9.756c3.217,5.511 7.614,11.284 12.507,16.559zM6.826,90.183c0.652,-2.084 4.084,-7.877 13.913,-19.329c1.348,2.176 2.946,4.18 4.756,5.971c-10.315,8.801 -16.389,12.675 -18.669,13.358zM48.112,82.885c-6.647,0 -12.774,-2.26 -17.665,-6.044c1.661,-1.451 3.373,-2.979 5.129,-4.575c1.438,1.066 3.211,1.707 5.136,1.707c1.897,0 3.649,-0.623 5.076,-1.663c4.52,3.62 8.853,6.503 12.835,8.59c-3.261,1.276 -6.803,1.985 -10.511,1.985zM75.468,80.378c-1.517,1.516 -4.78,1.675 -9.296,0.201c3.787,-2.577 6.999,-5.942 9.397,-9.857c1.572,4.553 1.559,7.997 -0.101,9.656zM77.038,53.958c0,10.755 -5.903,20.15 -14.637,25.135c-4.148,-1.89 -9.028,-4.896 -14.386,-9.16c0.844,-1.336 1.341,-2.911 1.341,-4.603c0,-1.752 -0.526,-3.379 -1.424,-4.741c1.24,-1.215 2.479,-2.438 3.691,-3.65c7.151,-7.151 13.796,-14.222 19.403,-20.606c3.765,4.883 6.012,10.994 6.012,17.625zM64.959,26.553c5.377,-4.637 10.091,-8.369 13.792,-10.919c0.724,0.995 1.693,1.796 2.82,2.314c-2.49,3.659 -6.115,8.261 -10.553,13.435c-1.814,-1.841 -3.847,-3.466 -6.059,-4.83zM84.554,15.352c-2.162,0 -3.922,-1.76 -3.922,-3.922c0,-2.162 1.76,-3.92 3.922,-3.92c2.163,0 3.923,1.758 3.923,3.92c0,2.162 -1.76,3.922 -3.923,3.922zM81.546,36.093c0,-1.59058 1.28942,-2.88 2.88,-2.88c1.59058,0 2.88,1.28942 2.88,2.88c0,1.59058 -1.28942,2.88 -2.88,2.88c-1.59058,0 -2.88,-1.28942 -2.88,-2.88zM57.08,64.038c0,-3.28112 2.65988,-5.941 5.941,-5.941c3.28112,0 5.941,2.65988 5.941,5.941c0,3.28112 -2.65988,5.941 -5.941,5.941c-3.28112,0 -5.941,-2.65988 -5.941,-5.941zM40.962,77.572c0,-0.6898 0.5592,-1.249 1.249,-1.249c0.6898,0 1.249,0.5592 1.249,1.249c0,0.6898 -0.5592,1.249 -1.249,1.249c-0.6898,0 -1.249,-0.5592 -1.249,-1.249zM69.307,46.986c0,-0.68925 0.55875,-1.248 1.248,-1.248c0.68925,0 1.248,0.55875 1.248,1.248c0,0.68925 -0.55875,1.248 -1.248,1.248c-0.68925,0 -1.248,-0.55875 -1.248,-1.248zM39.102,32.373c0,-1.0278 0.8332,-1.861 1.861,-1.861c1.0278,0 1.861,0.8332 1.861,1.861c0,1.0278 -0.8332,1.861 -1.861,1.861c-1.0278,0 -1.861,-0.8332 -1.861,-1.861zM22.877,62.178c0,-1.0278 0.8332,-1.861 1.861,-1.861c1.0278,0 1.861,0.8332 1.861,1.861c0,1.0278 -0.8332,1.861 -1.861,1.861c-1.0278,0 -1.861,-0.8332 -1.861,-1.861zM39.102,46.986c0,-1.83524 1.48776,-3.323 3.323,-3.323c1.83524,0 3.323,1.48776 3.323,3.323c0,1.83524 -1.48776,3.323 -3.323,3.323c-1.83524,0 -3.323,-1.48776 -3.323,-3.323z"
            stroke-width="3px" class="fill c1" />
    </g>
</svg>